<svg xmlns="http://www.w3.org/2000/svg" xmlns:xlink="http://www.w3.org/1999/xlink" width="500" zoomAndPan="magnify" viewBox="0 0 375 374.999991" height="500" preserveAspectRatio="xMidYMid meet" version="1.0"><defs><g/><clipPath id="c80171054a"><path d="M 62 11.453125 L 248 11.453125 L 248 114 L 62 114 Z M 62 11.453125 " clip-rule="nonzero"/></clipPath><clipPath id="be55b3fa65"><path d="M 11.453125 70 L 155 70 L 155 235 L 11.453125 235 Z M 11.453125 70 " clip-rule="nonzero"/></clipPath><clipPath id="00d8ebe4f7"><path d="M 219 140 L 363.203125 140 L 363.203125 306 L 219 306 Z M 219 140 " clip-rule="nonzero"/></clipPath><clipPath id="0bca784cd7"><path d="M 125 260 L 312 260 L 312 363.203125 L 125 363.203125 Z M 125 260 " clip-rule="nonzero"/></clipPath></defs><g clip-path="url(#c80171054a)"><path fill="#1ad1a5" d="M 247.707031 113.769531 L 220.03125 14.480469 C 164.894531 4.199219 105.742188 20.324219 63.070312 63 C 62.859375 63.210938 62.648438 63.492188 62.367188 63.703125 Z M 247.707031 113.769531 " fill-opacity="1" fill-rule="nonzero"/></g><g clip-path="url(#be55b3fa65)"><path fill="#1ad1a5" d="M 154.824219 97.433594 L 55.816406 70.675781 C 15.042969 116.585938 2.371094 178.554688 17.792969 234.46875 Z M 154.824219 97.433594 " fill-opacity="1" fill-rule="nonzero"/></g><path fill="#1ad1a5" d="M 354.390625 131.375 C 346.007812 106.375 331.855469 82.925781 311.996094 63 C 288.335938 39.339844 259.605469 23.847656 229.328125 16.453125 L 281.648438 204.046875 Z M 354.390625 131.375 " fill-opacity="1" fill-rule="nonzero"/><g clip-path="url(#00d8ebe4f7)"><path fill="#1ad1a5" d="M 219.75 277.914062 L 318.476562 305.097656 C 359.8125 259.183594 372.699219 196.722656 357.136719 140.53125 Z M 219.75 277.914062 " fill-opacity="1" fill-rule="nonzero"/></g><g clip-path="url(#0bca784cd7)"><path fill="#1ad1a5" d="M 125.460938 260.734375 L 151.375 359.8125 C 207.496094 371.5 268.269531 355.585938 311.855469 312.066406 Z M 125.460938 260.734375 " fill-opacity="1" fill-rule="nonzero"/></g><path fill="#1ad1a5" d="M 20.609375 243.621094 C 28.988281 268.621094 43.140625 292.070312 63 311.996094 C 85.746094 334.742188 113.136719 349.953125 142.078125 357.628906 L 93.207031 171.019531 Z M 20.609375 243.621094 " fill-opacity="1" fill-rule="nonzero"/><g fill="#efefef" fill-opacity="1"><g transform="translate(151.435137, 234.505981)"><g><path d="M 70.296875 -66.828125 L 29.59375 -66.828125 L 29.59375 -47.5 L 67.078125 -47.5 L 67.078125 -30.796875 L 29.59375 -30.796875 L 29.59375 0 L 8.359375 0 L 8.359375 -83.546875 L 70.296875 -83.546875 Z M 70.296875 -66.828125 "/></g></g></g></svg>